Coordinates
version=1
nRows=11
nColumns=40
inDegrees=yes

Units are S.I. units (second, meters, Newtons, ...)
Angles are in degrees.

endheader
time	pelvis_tilt	pelvis_list	pelvis_rotation	pelvis_tx	pelvis_ty	pelvis_tz	hip_flexion_r	hip_adduction_r	hip_rotation_r	knee_angle_r	knee_angle_r_beta	ankle_angle_r	subtalar_angle_r	mtp_angle_r	hip_flexion_l	hip_adduction_l	hip_rotation_l	knee_angle_l	knee_angle_l_beta	ankle_angle_l	subtalar_angle_l	mtp_angle_l	lumbar_extension	lumbar_bending	lumbar_rotation	arm_flex_r	arm_add_r	arm_rot_r	elbow_flex_r	pro_sup_r	wrist_flex_r	wrist_dev_r	arm_flex_l	arm_add_l	arm_rot_l	elbow_flex_l	pro_sup_l	wrist_flex_l	wrist_dev_l
     30.06250000	     -1.04760654	     -4.59009697	      1.12896187	      1.07092095	      0.91081839	      0.41064416	     24.69683397	     -7.37018107	     -2.90075161	     65.35888370	     65.35888370	     10.30903218	    -18.79914522	      8.73440545	     18.59122541	     -1.21895517	     -0.90213924	     35.97611688	     35.97611688	     20.75829024	    -17.48765301	      4.49670045	    -11.05845765	      6.47758138	      2.97852233	     13.76084907	    -13.23346554	     -4.59006977	     33.55306337	     46.73034821	      0.00000000	      0.00000000	     20.49135066	    -13.29916418	     20.91164723	     36.24247842	     45.13622380	      0.00000000	      0.00000000
     30.08385714	     -0.73607405	     -4.55139286	      0.51740568	      1.07118212	      0.91047884	      0.40976701	     25.67020962	     -7.49046495	     -3.00633840	     64.60743662	     64.60743662	     10.62012497	    -18.96648703	      8.88520372	     17.93506371	     -1.17580277	     -1.28319207	     36.15613833	     36.15613833	     21.18253791	    -17.76008453	      4.54029507	    -11.24000948	      6.81407573	      1.96495297	     10.63302688	    -13.12622460	     -4.69190785	     32.02796275	     46.77212438	      0.00000000	      0.00000000	     21.58464537	    -14.09208039	     20.52613139	     36.78096051	     45.19682714	      0.00000000	      0.00000000
     30.10521429	     -0.64624843	     -4.47781145	     -0.27656669	      1.07120774	      0.91084843	      0.40947976	     26.76627366	     -7.42848423	     -3.02359079	     63.11907540	     63.11907540	     11.43841060	    -18.91601556	     10.72546337	     17.36535415	     -1.10333614	     -1.72442046	     36.10541609	     36.10541609	     22.40785163	    -17.72020494	      7.05229283	    -11.36470230	      6.96986238	      2.06023632	      8.82630279	    -12.82176573	     -8.65406668	     25.62007963	     47.27351580	      0.00000000	      0.00000000	     21.58653233	    -14.40391770	     16.87952569	     42.41214209	     45.67568377	      0.00000000	      0.00000000
     30.12657143	     -0.60307089	     -4.47885679	     -1.07581400	      1.07106120	      0.91206253	      0.40984707	     27.55174940	     -7.16300393	     -3.19392589	     60.66963737	     60.66963737	     11.69608048	    -18.85417705	     10.47495345	     16.56120164	     -1.23160918	     -2.39310562	     35.41837735	     35.41837735	     22.44364997	    -17.75220049	      7.10707760	    -11.43992964	      7.17921312	      2.27719007	      5.33419095	    -13.18514789	     -9.07974150	     24.01017467	     47.34104801	      0.00000000	      0.00000000	     23.08595582	    -14.59745210	     16.12897569	     43.92313724	     45.78612600	      0.00000000	      0.00000000
     30.14792857	     -0.72532322	     -4.46755672	     -1.89431239	      1.07066689	      0.91380907	      0.41070533	     28.19943877	     -6.74882355	     -3.36721679	     57.45181288	     57.45181288	     11.66339869	    -18.66572579	      9.66330603	     15.78069930	     -1.37414046	     -3.12501339	     34.40573511	     34.40573511	     22.34647251	    -17.70111403	      7.07783453	    -11.42537896	      7.33964765	      2.43141600	      1.98251042	    -13.45327494	     -9.74897117	     22.84452387	     47.41241731	      0.00000000	      0.00000000	     24.30864908	    -14.99002278	     15.08191210	     46.18294600	     45.92721093	      0.00000000	      0.00000000
     30.16928571	     -1.02508812	     -4.46802852	     -2.73234905	      1.07005925	      0.91583628	      0.41209084	     28.67054256	     -6.22208996	     -3.57115112	     53.49531540	     53.49531540	     10.58160928	    -18.36997181	      6.05199348	     15.04407590	     -1.58468836	     -3.97462003	     33.06000468	     33.06000468	     21.80544532	    -17.60616844	      6.32681036	    -11.33511334	      7.46030340	      2.12024197	     -1.28762384	    -13.57589291	    -11.66752865	     23.03382931	     47.52486990	      0.00000000	      0.00000000	     24.54069835	    -15.85890370	     12.85244850	     50.66925993	     46.19419624	      0.00000000	      0.00000000
     30.19064286	     -1.21926965	     -4.52947635	     -3.46812134	      1.06935573	      0.91852903	      0.41384283	     28.75156340	     -5.46396491	     -3.58968147	     49.23015808	     49.23015808	     10.29223335	    -17.53669707	      5.68819469	     14.08587826	     -1.82468077	     -4.69035325	     31.52202724	     31.52202724	     21.49953049	    -17.35439798	      6.51339496	    -11.29371873	      7.62990976	      1.77182938	     -3.95076403	    -13.76700520	    -12.06800246	     22.25411783	     47.56344162	      0.00000000	      0.00000000	     25.84882764	    -16.59776430	     12.10437541	     52.17737114	     46.29157897	      0.00000000	      0.00000000
     30.21200000	     -1.49194019	     -4.49552461	     -4.17543617	      1.06849243	      0.92100238	      0.41595282	     28.70008063	     -4.81968022	     -3.51911741	     44.79778781	     44.79778781	      9.65369829	    -16.05401156	      4.43311864	     13.20924398	     -1.98951798	     -5.47501136	     29.92113299	     29.92113299	     20.98319448	    -16.98345382	      6.28994339	    -11.33086966	      7.65165225	      1.85962062	     -6.86963150	    -13.89490137	    -12.76877710	     22.19467054	     47.58901960	      0.00000000	      0.00000000	     27.06205577	    -17.27658035	     10.97811647	     55.11893675	     46.43851012	      0.00000000	      0.00000000
     30.23335714	     -1.86051575	     -4.46677532	     -4.82376181	      1.06766152	      0.92301677	      0.41829555	     28.43675326	     -4.28455166	     -3.65097451	     40.07619585	     40.07619585	      7.64497467	    -14.55224566	      0.28735632	     12.41354974	     -2.17981824	     -6.30874581	     28.23918934	     28.23918934	     19.98505258	    -16.80196076	      4.56760180	    -11.23573013	      7.65281849	      1.05750679	     -9.87648023	    -13.89962122	    -14.94150926	     24.73106611	     47.57561854	      0.00000000	      0.00000000	     26.94769982	    -18.54341101	      8.72649010	     60.13983659	     46.70913871	      0.00000000	      0.00000000
     30.25471429	     -2.15043031	     -4.44536226	     -5.37937504	      1.06672980	      0.92471765	      0.42084651	     28.10542797	     -3.81076461	     -3.72278167	     35.89761387	     35.89761387	      6.81495047	    -11.98091066	     -0.15559603	     11.70581147	     -2.36797969	     -7.02249254	     26.88925358	     26.88925358	     19.45222205	    -16.46892349	      3.99958410	    -11.21165181	      7.64744230	      0.86823897	    -12.41095219	    -13.89600845	    -15.91902626	     25.57281220	     47.53736703	      0.00000000	      0.00000000	     28.15480288	    -19.32394564	      7.68719779	     62.95165812	     46.86147318	      0.00000000	      0.00000000
     30.27607143	     -2.50516635	     -4.38255182	     -5.80487179	      1.06575303	      0.92594614	      0.42350957	     27.76595576	     -3.41057075	     -3.63767981	     32.04617789	     32.04617789	      5.95872971	     -9.46442005	      0.54270802	     11.20215270	     -2.49000675	     -7.49586441	     25.77752669	     25.77752669	     19.24004638	    -15.99224191	      4.10294112	    -11.02567009	      7.62017972	      0.74821366	    -14.30370107	    -13.91122835	    -16.09409841	     25.28990779	     47.53680054	      0.00000000	      0.00000000	     29.72732385	    -19.85196817	      7.14788036	     64.50228933	     46.94032304	      0.00000000	      0.00000000
